<svg xmlns="http://www.w3.org/2000/svg" width="1080" height="1920" viewBox="0 0 1080 1920" fill="none">
  <defs>
    <linearGradient id="sky" x1="540" y1="80" x2="540" y2="1420" gradientUnits="userSpaceOnUse">
      <stop offset="0" stop-color="#F8E8CA"/>
      <stop offset="0.36" stop-color="#E8D0A9"/>
      <stop offset="0.7" stop-color="#C9A379"/>
      <stop offset="1" stop-color="#A37855"/>
    </linearGradient>
    <radialGradient id="sunGlow" cx="0" cy="0" r="1" gradientUnits="userSpaceOnUse" gradientTransform="translate(200 320) rotate(21) scale(290 220)">
      <stop offset="0" stop-color="#FFF7E6" stop-opacity="0.92"/>
      <stop offset="0.55" stop-color="#FFEFCF" stop-opacity="0.42"/>
      <stop offset="1" stop-color="#FFEFCF" stop-opacity="0"/>
    </radialGradient>
    <linearGradient id="mist" x1="540" y1="930" x2="540" y2="1680" gradientUnits="userSpaceOnUse">
      <stop offset="0" stop-color="#FFF5E6" stop-opacity="0.52"/>
      <stop offset="1" stop-color="#FFF5E6" stop-opacity="0"/>
    </linearGradient>
    <linearGradient id="water" x1="540" y1="1140" x2="540" y2="1920" gradientUnits="userSpaceOnUse">
      <stop offset="0" stop-color="#85654D" stop-opacity="0.24"/>
      <stop offset="0.45" stop-color="#6D4F3B" stop-opacity="0.36"/>
      <stop offset="1" stop-color="#52392B" stop-opacity="0.62"/>
    </linearGradient>
    <linearGradient id="ridgeA" x1="540" y1="730" x2="540" y2="1250" gradientUnits="userSpaceOnUse">
      <stop offset="0" stop-color="#B88D62" stop-opacity="0.68"/>
      <stop offset="1" stop-color="#855E41" stop-opacity="0.26"/>
    </linearGradient>
    <linearGradient id="ridgeB" x1="540" y1="860" x2="540" y2="1450" gradientUnits="userSpaceOnUse">
      <stop offset="0" stop-color="#8D6243" stop-opacity="0.58"/>
      <stop offset="1" stop-color="#6C4A35" stop-opacity="0.16"/>
    </linearGradient>
    <filter id="softBlur" x="-10%" y="-10%" width="120%" height="120%" color-interpolation-filters="sRGB">
      <feGaussianBlur stdDeviation="10"/>
    </filter>
    <filter id="grain" x="0" y="0" width="100%" height="100%" color-interpolation-filters="sRGB">
      <feTurbulence type="fractalNoise" baseFrequency="0.72" numOctaves="2" stitchTiles="stitch"/>
      <feColorMatrix type="saturate" values="0"/>
      <feComponentTransfer>
        <feFuncA type="table" tableValues="0 0.06"/>
      </feComponentTransfer>
    </filter>
  </defs>

  <rect width="1080" height="1920" fill="url(#sky)"/>
  <ellipse cx="200" cy="300" rx="150" ry="128" fill="#FFF8E8" fill-opacity="0.8"/>
  <ellipse cx="200" cy="300" rx="264" ry="196" fill="url(#sunGlow)"/>

  <g filter="url(#softBlur)" fill="#FFF8EB" fill-opacity="0.56">
    <path d="M96 420C152 392 242 392 312 426C360 448 426 452 476 432C536 408 620 410 686 442C728 462 780 470 834 456C882 444 934 444 980 462V546H96V420Z"/>
    <path d="M34 566C102 536 194 532 270 562C334 588 408 590 474 568C538 548 620 546 692 576C750 600 822 606 886 594C942 584 998 586 1048 602V674H34V566Z"/>
  </g>

  <path d="M0 920C114 832 220 800 328 826C422 850 514 860 606 832C698 804 790 802 890 830C966 850 1026 880 1080 918V1920H0V920Z" fill="url(#ridgeA)"/>
  <path d="M0 1040C112 972 216 954 328 976C428 996 514 1008 602 990C702 968 800 972 904 1002C978 1024 1036 1054 1080 1080V1920H0V1040Z" fill="url(#ridgeB)"/>

  <g opacity="0.92">
    <path d="M350 970L542 970L520 936L374 936L350 970Z" fill="#4B2E1F"/>
    <rect x="382" y="970" width="128" height="282" fill="#3F261A"/>
    <rect x="330" y="1252" width="236" height="30" fill="#4B2E1F"/>
    <rect x="372" y="1028" width="18" height="224" fill="#583626"/>
    <rect x="418" y="1028" width="18" height="224" fill="#583626"/>
    <rect x="464" y="1028" width="18" height="224" fill="#583626"/>
    <rect x="510" y="1028" width="18" height="224" fill="#583626"/>
    <rect x="420" y="1056" width="52" height="82" fill="#D4A56E" fill-opacity="0.34"/>
  </g>

  <g opacity="0.9">
    <path d="M708 1062L900 1062L878 1030L732 1030L708 1062Z" fill="#4A2D1E"/>
    <rect x="740" y="1062" width="128" height="238" fill="#3B2418"/>
    <rect x="688" y="1300" width="236" height="28" fill="#4A2D1E"/>
    <rect x="728" y="1110" width="18" height="190" fill="#5C3928"/>
    <rect x="772" y="1110" width="18" height="190" fill="#5C3928"/>
    <rect x="816" y="1110" width="18" height="190" fill="#5C3928"/>
    <rect x="860" y="1110" width="18" height="190" fill="#5C3928"/>
    <rect x="778" y="1140" width="48" height="74" fill="#D8AA71" fill-opacity="0.28"/>
  </g>

  <g opacity="0.84">
    <path d="M120 1138L300 1138L278 1108L146 1108L120 1138Z" fill="#43291C"/>
    <rect x="146" y="1138" width="126" height="214" fill="#372115"/>
    <rect x="98" y="1352" width="220" height="26" fill="#43291C"/>
    <rect x="196" y="1182" width="22" height="170" fill="#5A3928"/>
    <rect x="182" y="1218" width="50" height="76" fill="#D4A069" fill-opacity="0.26"/>
  </g>

  <path d="M0 1260C130 1220 248 1214 366 1240C454 1260 550 1262 638 1244C742 1222 842 1226 952 1256C1002 1270 1044 1286 1080 1306V1920H0V1260Z" fill="url(#water)"/>

  <g opacity="0.42" stroke="#E6C197" stroke-width="3">
    <path d="M120 1414C230 1388 346 1386 462 1412C556 1434 644 1438 742 1418C844 1398 940 1402 1032 1424"/>
    <path d="M90 1480C208 1456 330 1456 452 1478C546 1496 648 1502 750 1484C856 1464 952 1468 1042 1490"/>
    <path d="M74 1548C196 1526 320 1526 444 1548C538 1566 640 1572 746 1556C852 1538 950 1540 1044 1562"/>
  </g>

  <g fill="#2F1D14" fill-opacity="0.7">
    <path d="M0 1680H1080V1920H0V1680Z"/>
    <path d="M88 1700L248 1700L218 1672L114 1672L88 1700Z"/>
    <path d="M466 1722L634 1722L604 1692L492 1692L466 1722Z"/>
    <path d="M820 1706L992 1706L964 1678L844 1678L820 1706Z"/>
  </g>

  <rect width="1080" height="1920" filter="url(#grain)" opacity="0.28"/>
  <rect y="980" width="1080" height="940" fill="url(#mist)"/>
</svg>
