<svg xmlns="http://www.w3.org/2000/svg" width="240" height="240" viewBox="0 0 240 240" fill="none">
  <g fill="#5A3724" fill-opacity="0.92">
    <path d="M44 152C60 106 104 74 154 72C178 72 196 78 210 88L168 156C160 152 152 150 144 150C116 150 92 168 80 194L44 152Z"/>
    <path d="M56 164C76 118 120 90 168 90C184 90 198 94 210 100L182 130C174 126 164 124 154 124C128 124 104 140 92 162L56 164Z"/>
    <path d="M88 196C96 174 118 160 142 160C156 160 170 166 180 176L150 208C144 202 136 198 128 198C116 198 104 206 98 216L88 196Z"/>
    <rect x="110" y="180" width="10" height="46" rx="5" transform="rotate(-24 110 180)"/>
  </g>
</svg>
