<svg xmlns="http://www.w3.org/2000/svg" width="220" height="220" viewBox="0 0 220 220" fill="none">
  <path d="M108 30C98 30 90 38 90 48C90 58 98 66 108 66C118 66 126 58 126 48C126 38 118 30 108 30Z" fill="#5A3724" fill-opacity="0.9"/>
  <path d="M108 66C82 66 62 84 62 108C62 126 72 142 88 150C66 160 52 182 52 206C52 210 56 214 60 214H156C160 214 164 210 164 206C164 182 150 160 128 150C144 142 154 126 154 108C154 84 134 66 108 66Z" fill="#5A3724" fill-opacity="0.9"/>
  <path d="M96 108C96 100 102 94 110 94C118 94 124 100 124 108C124 116 118 122 110 122C102 122 96 116 96 108Z" fill="#F0E3D7" fill-opacity="0.22"/>
</svg>
