<svg xmlns="http://www.w3.org/2000/svg" viewBox="0 0 120 120" role="img" aria-label="猫咪头像装饰">
  <g fill="none" fill-rule="evenodd">
    <path d="M34 44l-10-20 20 8z" fill="#D8C5D6"/>
    <path d="M86 44l10-20-20 8z" fill="#D8C5D6"/>
    <circle cx="60" cy="62" r="34" fill="#F8F5F8"/>
    <ellipse cx="47" cy="62" rx="5.6" ry="7.2" fill="#84ABC8"/>
    <ellipse cx="73" cy="62" rx="5.6" ry="7.2" fill="#84ABC8"/>
    <path d="M60 70c-3 0-5.5 2.1-5.5 4.8 0 2.9 2.4 5.2 5.5 5.2s5.5-2.3 5.5-5.2c0-2.7-2.5-4.8-5.5-4.8z" fill="#E2A9AF"/>
    <path d="M60 79v7m0 0c-4.6 5.3-9.5 5.3-13.8 1.2m13.8-1.2c4.3 4.1 9.2 4.1 13.8 1.2" stroke="#7F6A69" stroke-linecap="round" stroke-width="2.6"/>
  </g>
</svg>
